<svg xmlns="http://www.w3.org/2000/svg" xmlns:xlink="http://www.w3.org/1999/xlink" width="288.515" height="135" viewBox="0 0 288.515 135">
  <defs>
    <style>
      .cls-1, .cls-4 {
        fill: none;
      }

      .cls-2, .cls-5 {
        fill: #707070;
      }

      .cls-2 {
        font-size: 113px;
        font-family: Mexcellent-Regular, Mexcellent;
      }

      .cls-3 {
        clip-path: url(#clip-path);
      }

      .cls-4, .cls-5, .cls-6 {
        stroke: #707070;
      }

      .cls-6 {
        fill: #fff;
      }

      .cls-7 {
        stroke: none;
      }
    </style>
    <clipPath id="clip-path">
      <rect class="cls-1" width="14.434" height="75.999"/>
    </clipPath>
  </defs>
  <g id="Group_3" data-name="Group 3" transform="translate(-452.485 -289)">
    <text id="ULA_" data-name="ULA " class="cls-2" transform="translate(540 289)"><tspan x="0" y="114">ULA </tspan></text>
    <g id="Repeat_Grid_1" data-name="Repeat Grid 1" class="cls-3" transform="translate(615.55 315.735)">
      <g transform="translate(-615.55 -347.735)">
        <path id="Path_1" data-name="Path 1" class="cls-4" d="M615.969,381.234h10.588"/>
        <path id="Path_2" data-name="Path 2" class="cls-4" d="M615.969,373.7h13.713"/>
        <path id="Path_3" data-name="Path 3" class="cls-4" d="M615.55,365.138h11.038"/>
        <path id="Path_4" data-name="Path 4" class="cls-4" d="M615.969,356.892h14.015"/>
        <path id="Path_5" data-name="Path 5" class="cls-4" d="M615.969,348.235h9.674"/>
      </g>
      <g transform="translate(-615.55 -293.735)">
        <path id="Path_1-2" data-name="Path 1" class="cls-4" d="M615.969,381.234h10.588"/>
        <path id="Path_2-2" data-name="Path 2" class="cls-4" d="M615.969,373.7h13.713"/>
        <path id="Path_3-2" data-name="Path 3" class="cls-4" d="M615.55,365.138h11.038"/>
        <path id="Path_4-2" data-name="Path 4" class="cls-4" d="M615.969,356.892h14.015"/>
        <path id="Path_5-2" data-name="Path 5" class="cls-4" d="M615.969,348.235h9.674"/>
      </g>
    </g>
    <g id="speech-bubbles" transform="translate(427.857 289.283) rotate(-10)">
      <path id="Path_6" data-name="Path 6" class="cls-5" d="M39.3,32h0c21.707,0,39.3,17.265,39.3,38.563s-17.6,38.563-39.3,38.563a40.333,40.333,0,0,1-6.128-.468c-8.442,10.195-18.606,6.709-28.349,6.978h0c5.261-3.113,9.912-5.963,9.912-12.443a21.553,21.553,0,0,0-.166-2.66A38.219,38.219,0,0,1,0,70.563C0,49.265,17.6,32,39.3,32Zm42.251,86.437a15.1,15.1,0,0,0,7.533,13.082l.766,2.295c-8.444-.23-16.961-1.953-24.278-10.692a35.347,35.347,0,0,1-5.311.4A34.582,34.582,0,0,1,39.5,116.669c11.846-.05,24.1-3.627,32.579-11.948a43.324,43.324,0,0,0,10.066-14c2.479-5.75,5.173-19.473,5.841-24,5.942,5.95,5.952,14.605,5.952,23.545A32.674,32.674,0,0,1,81.7,116.157,18.238,18.238,0,0,0,81.554,118.437Z" transform="translate(19.954 0)"/>
    </g>
    <g id="Group_2" data-name="Group 2">
      <g id="Rectangle_1" data-name="Rectangle 1" class="cls-6" transform="translate(696 339)">
        <rect class="cls-7" width="45" height="64"/>
        <rect class="cls-1" x="0.5" y="0.5" width="44" height="63"/>
      </g>
      <g id="Group_1" data-name="Group 1" transform="translate(354.25 1118.75) rotate(-90)">
        <line id="Line_1" data-name="Line 1" class="cls-4" y2="30" transform="translate(722.82 353.5)"/>
        <line id="Line_2" data-name="Line 2" class="cls-4" y2="30" transform="translate(732.713 353.5)"/>
        <line id="Line_3" data-name="Line 3" class="cls-4" y2="30" transform="translate(742.607 353.5)"/>
        <line id="Line_4" data-name="Line 4" class="cls-4" y2="30" transform="translate(752.5 353.5)"/>
        <g id="Rectangle_2" data-name="Rectangle 2" class="cls-5" transform="translate(751 345)">
          <rect class="cls-7" width="3" height="3"/>
          <rect class="cls-1" x="0.5" y="0.5" width="2" height="2"/>
        </g>
        <g id="Rectangle_3" data-name="Rectangle 3" class="cls-5" transform="translate(741 345)">
          <rect class="cls-7" width="3" height="3"/>
          <rect class="cls-1" x="0.5" y="0.5" width="2" height="2"/>
        </g>
        <g id="Rectangle_4" data-name="Rectangle 4" class="cls-5" transform="translate(731 345)">
          <rect class="cls-7" width="3" height="3"/>
          <rect class="cls-1" x="0.5" y="0.5" width="2" height="2"/>
        </g>
        <g id="Rectangle_5" data-name="Rectangle 5" class="cls-5" transform="translate(721 345)">
          <rect class="cls-7" width="3" height="3"/>
          <rect class="cls-1" x="0.5" y="0.5" width="2" height="2"/>
        </g>
      </g>
      <path id="Path_7" data-name="Path 7" class="cls-4" d="M712.52,351.708l7.147,7.147,11.888-11.888" transform="translate(-2 -1)"/>
    </g>
  </g>
</svg>
